<?xml version="1.0" encoding="utf-8"?>
<!-- Generator: Adobe Illustrator 22.0.0, SVG Export Plug-In . SVG Version: 6.00 Build 0)  -->
<svg version="1.1" id="Layer_1" xmlns="http://www.w3.org/2000/svg" xmlns:xlink="http://www.w3.org/1999/xlink" x="0px" y="0px"
	 width="18px" height="18px" viewBox="0 0 18 18" style="enable-background:new 0 0 18 18;" xml:space="preserve">
<style type="text/css">
	.st0{fill:none;}
	.st1{fill:#ff0000;}
</style>
<path class="st0" d="M0,0h18v18H0V0z"/>
<path class="st1" d="M9,4.1L7.5,6h3L9,4.1z M13.5,7.5v3L15.4,9L13.5,7.5z M4.5,7.5L2.6,9l1.9,1.5V7.5z M10.5,12h-3L9,13.9L10.5,12z
	 M15.8,2.2H2.2c-0.8,0-1.5,0.7-1.5,1.5v10.5c0,0.8,0.7,1.5,1.5,1.5h13.5c0.8,0,1.5-0.7,1.5-1.5V3.8C17.2,2.9,16.6,2.2,15.8,2.2z
	 M15.8,14.3H2.2V3.7h13.5V14.3z"/>
</svg>
