<?xml version="1.0" encoding="utf-8"?>
<!-- Generator: Adobe Illustrator 22.0.0, SVG Export Plug-In . SVG Version: 6.00 Build 0)  -->
<svg version="1.1" id="Layer_1" xmlns="http://www.w3.org/2000/svg" xmlns:xlink="http://www.w3.org/1999/xlink" x="0px" y="0px"
	 width="24px" height="24px" viewBox="0 0 24 24" style="enable-background:new 0 0 24 24;" xml:space="preserve">
<style type="text/css">
	.st0{fill:none;}
	.st1{fill:#ff0000;}
</style>
<path class="st0" d="M0,0h24v24H0V0z"/>
<path class="st1" d="M14,12c0-1.1-0.9-2-2-2s-2,0.9-2,2s0.9,2,2,2S14,13.1,14,12z M12,3c-5,0-9,4-9,9H0l4,4l4-4H5c0-3.9,3.1-7,7-7
	s7,3.1,7,7s-3.1,7-7,7c-1.5,0-2.9-0.5-4.1-1.3l-1.4,1.4C8,20.3,9.9,21,12,21c5,0,9-4,9-9S17,3,12,3z"/>
</svg>
