<?xml version="1.0" encoding="utf-8"?>
<!-- Generator: Adobe Illustrator 22.0.0, SVG Export Plug-In . SVG Version: 6.00 Build 0)  -->
<svg version="1.1" id="Layer_1" xmlns="http://www.w3.org/2000/svg" xmlns:xlink="http://www.w3.org/1999/xlink" x="0px" y="0px"
	 width="18px" height="18px" viewBox="0 0 18 18" style="enable-background:new 0 0 18 18;" xml:space="preserve">
<style type="text/css">
	.st0{fill:#ff0000;}
	.st1{fill:none;}
</style>
<path class="st0" d="M9,10.5c1.2,0,2.2-1,2.2-2.2l0-4.5c0-1.2-1-2.2-2.2-2.2s-2.2,1-2.2,2.2v4.5C6.8,9.5,7.8,10.5,9,10.5z M13,8.2
	c0,2.2-1.9,3.8-4,3.8s-4-1.6-4-3.8H3.8c0,2.6,2,4.7,4.5,5v2.5h1.5v-2.5c2.5-0.4,4.5-2.5,4.5-5H13z"/>
<path class="st1" d="M0,0h18v18H0V0z"/>
</svg>
