<?xml version="1.0" encoding="utf-8"?>
<!-- Generator: Adobe Illustrator 22.0.0, SVG Export Plug-In . SVG Version: 6.00 Build 0)  -->
<svg version="1.1" id="Layer_1" xmlns="http://www.w3.org/2000/svg" xmlns:xlink="http://www.w3.org/1999/xlink" x="0px" y="0px"
	 width="18px" height="18px" viewBox="0 0 18 18" style="enable-background:new 0 0 18 18;" xml:space="preserve">
<style type="text/css">
	.st0{fill:none;}
	.st1{fill:#ff0000;}
</style>
<path class="st0" d="M0,0h18v18H0V0z M0,0h18v18H0V0z"/>
<path class="st1" d="M14.2,8.2H13c0,0.6-0.1,1.1-0.3,1.5l0.9,0.9C14,10,14.2,9.1,14.2,8.2z M11.2,8.4c0,0,0-0.1,0-0.1V3.8
	c0-1.2-1-2.2-2.2-2.2s-2.2,1-2.2,2.2v0.1L11.2,8.4z M3.2,2.2l-1,1l4.5,4.5v0.5c0,1.2,1,2.2,2.2,2.2c0.2,0,0.3,0,0.5-0.1l1.2,1.2
	c-0.5,0.2-1.1,0.4-1.7,0.4c-2.1,0-4-1.6-4-3.8H3.8c0,2.6,2,4.7,4.5,5v2.5h1.5v-2.5c0.7-0.1,1.3-0.3,1.9-0.7l3.1,3.1l1-1L3.2,2.2z"/>
</svg>
