<?xml version="1.0" encoding="utf-8"?>
<!-- Generator: Adobe Illustrator 22.0.0, SVG Export Plug-In . SVG Version: 6.00 Build 0)  -->
<svg version="1.1" id="Layer_1" xmlns="http://www.w3.org/2000/svg" xmlns:xlink="http://www.w3.org/1999/xlink" x="0px" y="0px"
	 width="115px" height="109.3px" viewBox="0 0 115 109.3" style="enable-background:new 0 0 115 109.3;" xml:space="preserve">
<style type="text/css">
	.st0{fill:#ff0000;}
</style>
<circle class="st0" cx="14.4" cy="37.4" r="14.4"/>
<circle class="st0" cx="40.2" cy="14.4" r="14.4"/>
<circle class="st0" cx="74.8" cy="14.4" r="14.4"/>
<circle class="st0" cx="100.6" cy="37.4" r="14.4"/>
<g>
	<path class="st0" d="M88.2,68.2c-5-5.9-9.2-10.9-14.3-16.7c-2.6-3.1-6-6.2-10.1-7.6c-0.6-0.2-1.3-0.4-1.9-0.5
		c-1.4-0.2-3-0.2-4.5-0.2s-3,0-4.5,0.3c-0.6,0.1-1.3,0.3-1.9,0.5c-4,1.4-7.4,4.5-10.1,7.6c-5,5.9-9.2,10.9-14.3,16.7
		c-7.5,7.5-16.8,15.9-15.1,27.5c1.7,5.9,5.9,11.7,13.4,13.3c4.2,0.9,17.6-2.5,31.9-2.5h1c14.3,0,27.7,3.3,31.9,2.5
		c7.5-1.7,11.7-7.5,13.4-13.3C105,84.1,95.7,75.7,88.2,68.2z M48.6,95.9V61.6l27.5,17.2L48.6,95.9z"/>
</g>
</svg>
