<?xml version="1.0" encoding="utf-8"?>
<!-- Generator: Adobe Illustrator 22.0.0, SVG Export Plug-In . SVG Version: 6.00 Build 0)  -->
<svg version="1.1" id="Layer_1" xmlns="http://www.w3.org/2000/svg" xmlns:xlink="http://www.w3.org/1999/xlink" x="0px" y="0px"
	 width="18px" height="18px" viewBox="0 0 18 18" style="enable-background:new 0 0 18 18;" xml:space="preserve">
<style type="text/css">
	.st0{clip-path:url(#SVGID_2_);fill:#ff0000;}
</style>
<g>
	<defs>
		<rect id="SVGID_1_" width="18" height="18"/>
	</defs>
	<clipPath id="SVGID_2_">
		<use xlink:href="#SVGID_1_"  style="overflow:visible;"/>
	</clipPath>
	<path class="st0" d="M9,3.8v-3L5.2,4.5L9,8.2v-3c2.5,0,4.5,2,4.5,4.5s-2,4.5-4.5,4.5s-4.5-2-4.5-4.5H3c0,3.3,2.7,6,6,6s6-2.7,6-6
		S12.3,3.8,9,3.8z M7.2,10.1h0.3c0.1,0,0.3-0.1,0.4-0.1C8,9.9,8,9.8,8,9.7V9.5c0,0-0.1-0.1-0.1-0.1S7.9,9.3,7.8,9.3H7.4
		c0,0-0.1,0.1-0.2,0.1c-0.1,0-0.1,0.1-0.1,0.1v0.1H6.4c0-0.1,0-0.2,0.1-0.4C6.6,9.2,6.7,9.1,6.8,9S7,8.9,7,8.9s0.3-0.1,0.4-0.1
		c0.2,0,0.3,0,0.5,0.1C8,8.9,8.1,8.9,8.2,9s0.1,0.1,0.2,0.3c0.1,0.2,0.1,0.2,0.1,0.4v0.2c0,0-0.1,0.1-0.1,0.2c0,0.1-0.1,0.1-0.1,0.1
		c-0.1,0-0.2,0.1-0.2,0.1c0.1,0.1,0.3,0.2,0.4,0.3c0.1,0.1,0.1,0.3,0.1,0.4s0,0.3-0.1,0.4c-0.1,0.1-0.1,0.2-0.2,0.3
		C8.2,11.9,8.1,12,7.9,12c-0.2,0-0.3,0.1-0.5,0.1c-0.1,0-0.3,0-0.4-0.1c-0.1-0.1-0.2-0.1-0.4-0.1c-0.1-0.1-0.1-0.1-0.2-0.3
		c-0.1-0.1-0.1-0.3-0.1-0.4H7v0.1c0,0,0.1,0.1,0.1,0.1c0,0.1,0.1,0.1,0.2,0.1h0.4c0,0,0.1-0.1,0.2-0.1c0.1,0,0.1-0.1,0.1-0.1v-0.4
		c0,0-0.1-0.1-0.1-0.1c0-0.1-0.1-0.1-0.2-0.1H7.2C7.2,10.6,7.2,10.1,7.2,10.1z M11.5,10.6c0,0.2,0,0.5-0.1,0.6l-0.2,0.5
		c0,0-0.2,0.2-0.4,0.2c-0.1,0-0.3,0.1-0.4,0.1s-0.3,0-0.4-0.1c-0.2-0.1-0.2-0.1-0.4-0.2c-0.2-0.1-0.2-0.2-0.2-0.5
		c-0.1-0.2-0.1-0.4-0.1-0.6v-0.5c0-0.2,0-0.4,0.1-0.6l0.2-0.5c0,0,0.2-0.2,0.4-0.2c0.1,0,0.3-0.1,0.4-0.1s0.3,0,0.4,0.1
		C11,8.9,11,9,11.2,9.1c0.2,0.1,0.2,0.2,0.2,0.5c0.1,0.2,0.1,0.4,0.1,0.6C11.5,10.1,11.5,10.6,11.5,10.6z M10.9,10V9.7
		c0-0.1-0.1-0.1-0.1-0.2c0-0.1-0.1-0.1-0.1-0.2c-0.1-0.1-0.1-0.1-0.2-0.1c-0.1,0-0.1,0-0.2,0.1L10,9.4c0,0-0.1,0.1-0.1,0.2v1.5
		c0,0,0.1,0.2,0.1,0.2c0,0.1,0.1,0.1,0.2,0.1c0.1,0.1,0.1,0.1,0.2,0.1c0.1,0,0.2,0,0.2-0.1l0.1-0.1c0,0,0.1-0.1,0.1-0.2V10z"/>
</g>
</svg>
